<?xml version="1.0" standalone="no"?>
<svg xmlns:xlink="http://www.w3.org/1999/xlink" id="wave" style="transform:rotate(0deg); transition: 0.3s" viewBox="0 0 1440 220" version="1.1" xmlns="http://www.w3.org/2000/svg"><defs><linearGradient id="sw-gradient-0" x1="0" x2="0" y1="1" y2="0"><stop stop-color="rgba(20, 32, 38, 1)" offset="0%"/><stop stop-color="rgba(59, 101, 122, 1)" offset="100%"/></linearGradient></defs><path style="transform:translate(0, 0px); opacity:1" fill="url(#sw-gradient-0)" d="M0,0L26.7,0C53.3,0,107,0,160,11C213.3,22,267,44,320,47.7C373.3,51,427,37,480,40.3C533.3,44,587,66,640,91.7C693.3,117,747,147,800,132C853.3,117,907,59,960,44C1013.3,29,1067,59,1120,91.7C1173.3,125,1227,161,1280,154C1333.3,147,1387,95,1440,84.3C1493.3,73,1547,103,1600,128.3C1653.3,154,1707,176,1760,176C1813.3,176,1867,154,1920,146.7C1973.3,139,2027,147,2080,143C2133.3,139,2187,125,2240,128.3C2293.3,132,2347,154,2400,146.7C2453.3,139,2507,103,2560,80.7C2613.3,59,2667,51,2720,62.3C2773.3,73,2827,103,2880,124.7C2933.3,147,2987,161,3040,161.3C3093.3,161,3147,147,3200,132C3253.3,117,3307,103,3360,113.7C3413.3,125,3467,161,3520,154C3573.3,147,3627,95,3680,62.3C3733.3,29,3787,15,3813,7.3L3840,0L3840,220L3813.3,220C3786.7,220,3733,220,3680,220C3626.7,220,3573,220,3520,220C3466.7,220,3413,220,3360,220C3306.7,220,3253,220,3200,220C3146.7,220,3093,220,3040,220C2986.7,220,2933,220,2880,220C2826.7,220,2773,220,2720,220C2666.7,220,2613,220,2560,220C2506.7,220,2453,220,2400,220C2346.7,220,2293,220,2240,220C2186.7,220,2133,220,2080,220C2026.7,220,1973,220,1920,220C1866.7,220,1813,220,1760,220C1706.7,220,1653,220,1600,220C1546.7,220,1493,220,1440,220C1386.7,220,1333,220,1280,220C1226.7,220,1173,220,1120,220C1066.7,220,1013,220,960,220C906.7,220,853,220,800,220C746.7,220,693,220,640,220C586.7,220,533,220,480,220C426.7,220,373,220,320,220C266.7,220,213,220,160,220C106.7,220,53,220,27,220L0,220Z"/><defs><linearGradient id="sw-gradient-1" x1="0" x2="0" y1="1" y2="0"><stop stop-color="rgba(20, 32, 38, 1)" offset="0%"/><stop stop-color="rgba(148, 189, 204, 1)" offset="100%"/></linearGradient></defs><path style="transform:translate(0, 50px); opacity:0.9" fill="url(#sw-gradient-1)" d="M0,0L26.7,25.7C53.3,51,107,103,160,117.3C213.3,132,267,110,320,95.3C373.3,81,427,73,480,62.3C533.3,51,587,37,640,55C693.3,73,747,125,800,150.3C853.3,176,907,176,960,172.3C1013.3,169,1067,161,1120,143C1173.3,125,1227,95,1280,95.3C1333.3,95,1387,125,1440,124.7C1493.3,125,1547,95,1600,95.3C1653.3,95,1707,125,1760,117.3C1813.3,110,1867,66,1920,47.7C1973.3,29,2027,37,2080,55C2133.3,73,2187,103,2240,128.3C2293.3,154,2347,176,2400,187C2453.3,198,2507,198,2560,168.7C2613.3,139,2667,81,2720,80.7C2773.3,81,2827,139,2880,135.7C2933.3,132,2987,66,3040,58.7C3093.3,51,3147,103,3200,110C3253.3,117,3307,81,3360,55C3413.3,29,3467,15,3520,22C3573.3,29,3627,59,3680,80.7C3733.3,103,3787,117,3813,124.7L3840,132L3840,220L3813.3,220C3786.7,220,3733,220,3680,220C3626.7,220,3573,220,3520,220C3466.7,220,3413,220,3360,220C3306.7,220,3253,220,3200,220C3146.7,220,3093,220,3040,220C2986.7,220,2933,220,2880,220C2826.7,220,2773,220,2720,220C2666.7,220,2613,220,2560,220C2506.7,220,2453,220,2400,220C2346.7,220,2293,220,2240,220C2186.7,220,2133,220,2080,220C2026.7,220,1973,220,1920,220C1866.7,220,1813,220,1760,220C1706.7,220,1653,220,1600,220C1546.7,220,1493,220,1440,220C1386.7,220,1333,220,1280,220C1226.7,220,1173,220,1120,220C1066.7,220,1013,220,960,220C906.7,220,853,220,800,220C746.7,220,693,220,640,220C586.7,220,533,220,480,220C426.7,220,373,220,320,220C266.7,220,213,220,160,220C106.7,220,53,220,27,220L0,220Z"/></svg>